<?xml version="1.0" standalone="no"?>
<svg viewBox="0 0 200 200" xmlns="http://www.w3.org/2000/svg">
  <path fill="#FF0066" d="M32.5,-42.8C42.8,-37.3,52.3,-28.7,61.7,-16.2C71.2,-3.6,80.6,12.8,76.2,24.3C71.9,35.9,53.8,42.5,38.8,53.8C23.8,65,11.9,81,0.5,80.3C-10.9,79.6,-21.8,62.3,-34.6,50.3C-47.5,38.4,-62.2,31.7,-69.2,20.1C-76.2,8.6,-75.5,-7.9,-69,-20.7C-62.5,-33.6,-50.2,-42.9,-37.7,-47.7C-25.3,-52.4,-12.6,-52.7,-0.8,-51.7C11.1,-50.6,22.3,-48.3,32.5,-42.8Z" transform="translate(100 100)" />
</svg>
